<?xml version="1.0" encoding="UTF-8"?>
<svg version="1.1" xmlns="http://www.w3.org/2000/svg" width="48" height="48">
<path d="M0 0 C15.84 0 31.68 0 48 0 C48 15.84 48 31.68 48 48 C32.16 48 16.32 48 0 48 C0 32.16 0 16.32 0 0 Z " fill="#F5F5F5" transform="translate(0,0)"/>
<path d="M0 0 C4.62 0 9.24 0 14 0 C14 2.31 14 4.62 14 7 C11.69 7 9.38 7 7 7 C7 9.31 7 11.62 7 14 C8.98 14 10.96 14 13 14 C13 15.98 13 17.96 13 20 C11.02 20 9.04 20 7 20 C7 22.97 7 25.94 7 29 C9.31 29 11.62 29 14 29 C14 30.98 14 32.96 14 35 C9.38 35 4.76 35 0 35 C0 23.45 0 11.9 0 0 Z " fill="#050505" transform="translate(27,6)"/>
<path d="M0 0 C2.31 0 4.62 0 7 0 C7.04962653 4.03845412 7.08582632 8.07678887 7.10986328 12.11547852 C7.11988926 13.48790583 7.13351356 14.86031195 7.15087891 16.23266602 C7.17527627 18.21100527 7.18544484 20.18950367 7.1953125 22.16796875 C7.20578613 23.35672607 7.21625977 24.5454834 7.22705078 25.77026367 C7.00161315 28.97705344 6.45162246 31.14876025 5 34 C2.67662171 35.74253372 0.94439115 36.00828217 -1.9375 36.4375 C-5 36 -5 36 -7.875 34.25 C-11.07055903 29.36267442 -10.40769141 24.68050025 -10 19 C-7.69 19 -5.38 19 -3 19 C-3 22.3 -3 25.6 -3 29 C-2.01 29 -1.02 29 0 29 C0 19.43 0 9.86 0 0 Z " fill="#080808" transform="translate(17,6)"/>
</svg>
